
<svg width="64px" height="64px" viewBox="0 0 64 64" version="1.1" xmlns="http://www.w3.org/2000/svg" xmlns:xlink="http://www.w3.org/1999/xlink">
    <defs></defs>
    <g id="Page-1" stroke="none" stroke-width="1" fill="none" fill-rule="evenodd">
        <g id="iPhone-7" transform="translate(-39.000000, -46.000000)" fill="#FFFFFF">
            <g id="Night" transform="translate(38.000000, 46.000000)">
                <g id="cloud" transform="translate(1.000000, 0.000000)">
                    <rect id="Rectangle-2" opacity="0" x="0" y="0" width="64" height="64"></rect>
                    <path d="M10.6837075,55.3698422 L49.4996966,55.3872876 C49.4996966,55.3872876 61,55.3698422 61,43.6966019 C61,32.0233617 49.7067658,31.893659 49.7067658,31.893659 L45.998483,31.9262743 C45.998483,31.9262743 43.6615595,24.0970874 31,24.0970874 C18.3384405,24.0970874 14.3980583,35.7475728 14.3980583,35.7475728 L10.6837075,35.7475728 C10.6837075,35.7475728 1,36.1162015 1,45.4441748 C1,54.7721481 10.6837075,55.3698422 10.6837075,55.3698422 Z" id="Path-2"></path>
                    <path d="M44.3853928,7.16183787 C38.695113,8.66493634 34.5,13.8478022 34.5,20.0104892 C34.5,27.349464 40.4494146,33.2988786 47.7883893,33.2988786 C52.1839578,33.2988786 56.081059,31.1646863 58.5,27.8759946 C57.4138818,28.1628948 56.2732912,28.3157326 55.0970035,28.3157326 C47.7580287,28.3157326 41.8086141,22.366318 41.8086141,15.0273432 C41.8086141,12.0839369 42.7655964,9.36404582 44.3853928,7.16183787 Z" id="Combined-Shape"></path>
                    <polygon id="Star" points="18.8125 14.5 16.6083053 15.6588137 17.029269 13.2044069 15.2460381 11.4661863 17.7104027 11.1080931 18.8125 8.875 19.9145973 11.1080931 22.3789619 11.4661863 20.595731 13.2044069 21.0166947 15.6588137"></polygon>
                    <polygon id="Star" points="7.5625 21.0625 6.46040265 21.6419069 6.67088452 20.4147034 5.77926903 19.5455931 7.01145133 19.3665466 7.5625 18.25 8.11354867 19.3665466 9.34573097 19.5455931 8.45411548 20.4147034 8.66459735 21.6419069"></polygon>
                </g>
            </g>
        </g>
    </g>
</svg>
