
<svg width="64px" height="52px" viewBox="0 0 64 52" version="1.1" xmlns="http://www.w3.org/2000/svg" xmlns:xlink="http://www.w3.org/1999/xlink">
    <!-- Generator: Sketch 43.2 (39069) - http://www.bohemiancoding.com/sketch -->
    <desc>Created with Sketch.</desc>
    <defs></defs>
    <g id="Page-1" stroke="none" stroke-width="1" fill="none" fill-rule="evenodd">
        <g id="iPhone-7" transform="translate(-32.000000, -47.000000)" fill="#FFFFFF">
            <g id="Night" transform="translate(32.000000, 47.000000)">
                <g id="cloud">
                    <path d="M10.329288,51.5944984 L51.7330097,51.6131068 C51.7330097,51.6131068 64,51.5944984 64,39.1430421 C64,26.6915858 51.9538835,26.5532362 51.9538835,26.5532362 L47.9983819,26.5880259 C47.9983819,26.5880259 45.5056634,18.2368932 32,18.2368932 C18.4943366,18.2368932 14.2912621,30.6640777 14.2912621,30.6640777 L10.329288,30.6640777 C10.329288,30.6640777 2.35367281e-14,31.0572816 0,41.0071197 C-2.24820162e-14,50.9569579 10.329288,51.5944984 10.329288,51.5944984 Z" id="Path-2"></path>
                    <path d="M46.2777523,0.172627063 C40.2081206,1.7759321 35.7333333,7.30432237 35.7333333,13.8778552 C35.7333333,21.706095 42.0793755,28.0521371 49.9076153,28.0521371 C54.5962217,28.0521371 58.7531296,25.7756654 61.3333333,22.2677276 C60.1748073,22.5737545 58.9581773,22.7367814 57.7034704,22.7367814 C49.8752306,22.7367814 43.5291884,16.3907392 43.5291884,8.56249946 C43.5291884,5.42286607 44.5499694,2.52164887 46.2777523,0.172627063 Z" id="Combined-Shape"></path>
                    <polygon id="Star" points="19 8 16.648859 9.23606798 17.097887 6.61803399 15.1957739 4.76393202 17.8244295 4.38196601 19 2 20.1755705 4.38196601 22.8042261 4.76393202 20.902113 6.61803399 21.351141 9.23606798"></polygon>
                    <polygon id="Star" points="7 15 5.8244295 15.618034 6.04894348 14.309017 5.09788697 13.381966 6.41221475 13.190983 7 12 7.58778525 13.190983 8.90211303 13.381966 7.95105652 14.309017 8.1755705 15.618034"></polygon>
                </g>
            </g>
        </g>
    </g>
</svg>
