
<svg width="64px" height="64px" viewBox="0 0 64 64" version="1.1" xmlns="http://www.w3.org/2000/svg" xmlns:xlink="http://www.w3.org/1999/xlink">
    <defs></defs>
    <g id="Page-1" stroke="none" stroke-width="1" fill="none" fill-rule="evenodd">
        <g id="iPhone-7" transform="translate(-38.000000, -119.000000)" fill="#FFFFFF">
            <g id="Night" transform="translate(32.000000, 47.000000)">
                <g id="moon" transform="translate(6.000000, 72.000000)">
                    <rect id="Rectangle-2" opacity="0" x="0" y="0" width="64" height="64"></rect>
                    <path d="M29.2994374,8.28377051 C19.3414478,10.9141928 12,19.9842081 12,30.7689104 C12,43.6121163 22.4114755,54.0235917 35.2546813,54.0235917 C42.9469262,54.0235917 49.7668532,50.2887553 54,44.5335448 C52.0992932,45.0356202 50.1032596,45.3030862 48.0447561,45.3030862 C35.2015502,45.3030862 24.7900747,34.8916108 24.7900747,22.0484049 C24.7900747,16.8974439 26.4647936,12.1376344 29.2994374,8.28377051 Z" id="Combined-Shape"></path>
                    <polygon id="Star" points="46 32.5 43.0610737 34.045085 43.6223587 30.7725425 41.2447174 28.454915 44.5305369 27.9774575 46 25 47.4694631 27.9774575 50.7552826 28.454915 48.3776413 30.7725425 48.9389263 34.045085"></polygon>
                    <polygon id="Star" points="38 19.5 36.2366442 20.427051 36.5734152 18.4635255 35.1468305 17.072949 37.1183221 16.7864745 38 15 38.8816779 16.7864745 40.8531695 17.072949 39.4265848 18.4635255 39.7633558 20.427051"></polygon>
                </g>
            </g>
        </g>
    </g>
</svg>
