
<svg width="64px" height="70px" viewBox="0 0 64 70" version="1.1" xmlns="http://www.w3.org/2000/svg" xmlns:xlink="http://www.w3.org/1999/xlink">
    <!-- Generator: Sketch 43.2 (39069) - http://www.bohemiancoding.com/sketch -->
    <desc>Created with Sketch.</desc>
    <defs></defs>
    <g id="Page-1" stroke="none" stroke-width="1" fill="none" fill-rule="evenodd">
        <g id="iPhone-7" transform="translate(-38.000000, -120.000000)" fill="#FFFFFF">
            <g id="Night" transform="translate(32.000000, 47.000000)">
                <g id="moon" transform="translate(6.000000, 73.000000)">
                    <path d="M26.0878742,0.283770514 C11.0710402,4.25049643 0,17.9282486 0,34.1917808 C0,53.5595748 15.7006992,69.260274 35.0684932,69.260274 C46.6685418,69.260274 56.953119,63.6280709 63.3367833,54.9491062 C60.470482,55.7062453 57.4604262,56.109589 54.3561644,56.109589 C34.9883704,56.109589 19.2876712,40.4088899 19.2876712,21.0410959 C19.2876712,13.2733506 21.8131786,6.09546916 26.0878742,0.283770514 Z" id="Combined-Shape"></path>
                    <polygon id="Star" points="57 30 53.4732885 31.854102 54.1468305 27.927051 51.2936609 25.145898 55.2366442 24.572949 57 21 58.7633558 24.572949 62.7063391 25.145898 59.8531695 27.927051 60.5267115 31.854102"></polygon>
                    <polygon id="Star" points="45 14 42.648859 15.236068 43.097887 12.618034 41.1957739 10.763932 43.8244295 10.381966 45 8 46.1755705 10.381966 48.8042261 10.763932 46.902113 12.618034 47.351141 15.236068"></polygon>
                </g>
            </g>
        </g>
    </g>
</svg>
