
<svg width="240px" height="212px" viewBox="0 0 240 212" version="1.1" xmlns="http://www.w3.org/2000/svg" xmlns:xlink="http://www.w3.org/1999/xlink">
    <defs></defs>
    <g id="Page-1" stroke="none" stroke-width="1" fill="none" fill-rule="evenodd">
        <g id="nightfall" fill="#FFFFFF">
            <path d="M10,139.427903 L230,140 C230,140 230,30 120,30 C10,30 10,139.427903 10,139.427903 Z" id="Sun-bg" fill-opacity="0.2"></path>
            <path d="M40,140 L200,139.934429 C200,139.934429 200,60 120,60 C40,60 40,140 40,140 Z" id="Sun-main"></path>
            <rect id="Rectangle" fill-opacity="0.5" x="60" y="196" width="120" height="16" rx="8"></rect>
            <rect id="Rectangle" fill-opacity="0.5" x="30" y="168" width="180" height="16" rx="8"></rect>
            <rect id="Rectangle" x="0" y="140" width="240" height="16" rx="8"></rect>
            <polygon id="Triangle" transform="translate(120.000000, 20.000000) scale(1, -1) translate(-120.000000, -20.000000) " points="120 0 150 40 90 40"></polygon>
        </g>
    </g>
</svg>
