
<svg width="64px" height="57px" viewBox="0 0 64 57" version="1.1" xmlns="http://www.w3.org/2000/svg" xmlns:xlink="http://www.w3.org/1999/xlink">
    <!-- Generator: Sketch 43.2 (39069) - http://www.bohemiancoding.com/sketch -->
    <desc>Created with Sketch.</desc>
    <defs></defs>
    <g id="Page-1" stroke="none" stroke-width="1" fill="none" fill-rule="evenodd">
        <g id="iPhone-7" transform="translate(-259.000000, -224.000000)" fill="#FFFFFF">
            <g id="Light" transform="translate(259.000000, 40.000000)">
                <g id="sunrise" transform="translate(0.000000, 184.000000)">
                    <path d="M2.66666667,37.1807741 L61.3333333,37.3333333 C61.3333333,37.3333333 61.3333333,8 32,8 C2.66666667,8 2.66666667,37.1807741 2.66666667,37.1807741 Z" id="Sun-bg" fill-opacity="0.2"></path>
                    <path d="M10.6666667,37.3333333 L53.3333333,37.3158477 C53.3333333,37.3158477 53.3333333,16 32,16 C10.6666667,16 10.6666667,37.3333333 10.6666667,37.3333333 Z" id="Sun-main"></path>
                    <rect id="Rectangle" fill-opacity="0.5" x="16" y="52.2666667" width="32" height="4.26666667" rx="2.13333333"></rect>
                    <rect id="Rectangle" fill-opacity="0.5" x="8" y="44.8" width="48" height="4.26666667" rx="2.13333333"></rect>
                    <rect id="Rectangle" x="0" y="37.3333333" width="64" height="4.26666667" rx="2.13333333"></rect>
                    <polygon id="Triangle" points="32 0 40 10.6666667 24 10.6666667"></polygon>
                </g>
            </g>
        </g>
    </g>
</svg>
